<svg width="12" height="10" viewBox="0 0 12 10" fill="#1485dd"
     xmlns="http://www.w3.org/2000/svg">
  <path d="M2.28145 4.06597C1.9143 3.6534 1.2822 3.61659 0.86963 3.98374C0.457059 4.3509 0.420241 4.98299 0.787397 5.39556L2.28145 4.06597ZM4.88873 8.5L4.14171 9.16479C4.33326 9.38004 4.60835 9.5022 4.89648 9.49997C5.18461 9.49774 5.45777 9.37133 5.64597 9.15314L4.88873 8.5ZM11.6837 2.15314C12.0444 1.73493 11.9978 1.10349 11.5796 0.742765C11.1614 0.382044 10.53 0.428648 10.1693 0.846857L11.6837 2.15314ZM0.787397 5.39556L4.14171 9.16479L5.63576 7.8352L2.28145 4.06597L0.787397 5.39556ZM5.64597 9.15314L11.6837 2.15314L10.1693 0.846857L4.1315 7.84685L5.64597 9.15314Z"/>
</svg>
