<svg width="151" height="151" viewBox="0 0 151 151" fill="none" xmlns="http://www.w3.org/2000/svg">
    <path d="M85.1495 0H65.672C29.4024 0 0 29.4024 0 65.672V85.1495C0 121.419 29.4024 150.822 65.672 150.822H85.1495C121.419 150.822 150.822 121.419 150.822 85.1495V65.672C150.822 29.4024 121.419 0 85.1495 0Z" fill="url(#paint0_linear)"/>
    <path d="M41.3754 75.2726C41.3754 72.0316 44.0026 69.4044 47.2437 69.4044H93.7255C102.407 69.4044 109.445 76.4425 109.445 85.1243C109.445 101.505 96.1662 114.784 79.7853 114.784H57.8774C48.7635 114.784 41.3754 107.396 41.3754 98.2827V75.2726Z" fill="#7F7F82"/>
    <path fill-rule="evenodd" clip-rule="evenodd" d="M67.4892 36.037C53.067 36.037 41.3754 47.7284 41.3754 62.1508V62.3367V76.5547V98.1005C41.3754 107.315 48.8452 114.784 58.0593 114.784C67.2736 114.784 74.7431 107.315 74.7431 98.1005V81.417H77.3834C95.0909 81.417 109.445 67.0622 109.445 49.355C109.445 41.9995 103.483 36.037 96.1273 36.037H67.6754C67.6345 36.037 67.594 36.037 67.5534 36.037C67.532 36.037 67.5106 36.037 67.4892 36.037Z" fill="url(#paint1_linear)"/>
    <defs>
        <linearGradient id="paint0_linear" x1="-57.5547" y1="71.0452" x2="68.432" y2="208.695" gradientUnits="userSpaceOnUse">
            <stop stop-color="#262626"/>
            <stop offset="1" stop-color="#0E0E0E"/>
        </linearGradient>
        <linearGradient id="paint1_linear" x1="143.48" y1="75.4106" x2="65.5616" y2="8.05705" gradientUnits="userSpaceOnUse">
            <stop stop-color="#949495"/>
            <stop offset="1" stop-color="#EDEDEE"/>
        </linearGradient>
    </defs>
</svg>
