<svg width="15" height="15" viewBox="0 0 15 15" fill="none" xmlns="http://www.w3.org/2000/svg">
	<path d="M11.1337 3.91031L7.8525 0.160313C7.76343 0.0590625 7.635 0 7.5 0C7.365 0 7.23656 0.0590625 7.1475 0.160313L3.86625 3.91031C3.74531 4.04906 3.71531 4.245 3.79218 4.41281C3.86812 4.57969 4.035 4.6875 4.21875 4.6875H6.09375V10.7812C6.09375 11.04 6.30375 11.25 6.5625 11.25H8.4375C8.69625 11.25 8.90625 11.04 8.90625 10.7812V4.6875H10.7812C10.965 4.6875 11.1319 4.58062 11.2078 4.41281C11.2837 4.245 11.2556 4.04813 11.1337 3.91031Z"
		  fill="black"/>
	<path d="M12.6562 10.3125V13.125H2.34375V10.3125H0.46875V14.0625C0.46875 14.5809 0.88875 15 1.40625 15H13.5938C14.1122 15 14.5312 14.5809 14.5312 14.0625V10.3125H12.6562Z"
		  fill="black"/>
</svg>
