<svg width="15" height="15" viewBox="0 0 15 15" fill="none" xmlns="http://www.w3.org/2000/svg">
    <path d="M3.40277 5.1003C3.36194 5.06642 3.31361 5.04278 3.2618 5.03136C3.24202 5.02697 3.19391 5.01891 3.17478 5.03807C3.11941 5.09345 3.14549 5.20076 3.14894 5.21415C3.16423 5.25537 3.16737 5.30012 3.15798 5.34307C3.1486 5.38603 3.12708 5.42539 3.09599 5.45648C3.0649 5.48756 3.02554 5.50908 2.98258 5.51846C2.93963 5.52784 2.89488 5.5247 2.85366 5.50941C2.82999 5.50342 2.80568 5.50033 2.78127 5.50021C2.74344 5.49788 2.70622 5.51051 2.67762 5.53536C2.64035 5.57266 2.69191 5.71539 2.73987 5.76335C2.79653 5.82001 2.90889 5.93263 3.53619 5.89674C3.57187 5.26958 3.45943 5.15708 3.40277 5.10045V5.1003Z"
          fill="black"/>
    <path d="M5.79688 6.78403C5.78587 6.78157 5.47623 6.71392 5.24637 6.94384C5.01492 7.17552 5.18244 7.54291 5.26731 7.6279C5.37316 7.73354 5.52978 7.88914 6.32809 7.82548V5.88385C6.29604 5.90154 6.26662 5.92363 6.2407 5.94948C6.01081 6.17954 6.07842 6.48895 6.08141 6.50205C6.09107 6.54123 6.09041 6.58225 6.07949 6.62109C6.06856 6.65994 6.04775 6.6953 6.01909 6.7237C5.99043 6.75211 5.95489 6.7726 5.91594 6.78317C5.877 6.79375 5.83598 6.79404 5.79688 6.78403V6.78403Z"
          fill="black"/>
    <path d="M11.2944 10.6842L9.92609 8.79054C9.92462 8.78852 9.92316 8.78652 9.92184 8.78447C9.81744 8.62996 9.65592 8.52325 9.47284 8.48781C9.28975 8.45238 9.10009 8.49113 8.94558 8.59554C8.79106 8.69994 8.68435 8.86145 8.64892 9.04454C8.61349 9.22762 8.65224 9.41728 8.75664 9.5718L10.277 11.8218C10.3118 11.8733 10.3247 11.9364 10.313 11.9974C10.3252 12.5488 10.5526 13.0736 10.9467 13.4595C11.3408 13.8455 11.8703 14.0619 12.4219 14.0625H13.8281V8.67188C13.828 8.55892 13.8008 8.44763 13.7488 8.34736L12.4219 6.21191V10.5469C12.4219 10.609 12.3972 10.6687 12.3532 10.7126C12.3093 10.7566 12.2497 10.7813 12.1875 10.7813H11.4844C11.4473 10.7813 11.4107 10.7725 11.3777 10.7556C11.3447 10.7387 11.3161 10.7142 11.2944 10.6842V10.6842Z"
          fill="black"/>
    <path d="M10.0308 5.39065L9.37499 4.40692L8.71918 5.39065L9.37499 6.37438L10.0308 5.39065Z" fill="black"/>
    <path d="M6.56249 10.7812C6.50033 10.7812 6.44071 10.7565 6.39676 10.7126C6.3528 10.6686 6.32811 10.609 6.32811 10.5469V8.29548C6.20697 8.30427 6.09667 8.30837 5.9967 8.30837C5.35071 8.30837 5.11581 8.13898 4.93616 7.95959C4.69062 7.71365 4.47409 7.05371 4.91498 6.61247C5.09906 6.42887 5.34479 6.32022 5.60448 6.3076C5.61712 6.04797 5.72569 5.80227 5.90916 5.61813C6.02377 5.50245 6.16918 5.42212 6.32811 5.38668V3.38536L4.91483 1.97205L1.26892 5.61795L7.89813 12.2471L9.15166 10.9936L9.0081 10.7812H6.56249ZM3.98829 6.13645C3.98333 6.19107 3.95937 6.24222 3.92059 6.281C3.8818 6.31978 3.83065 6.34373 3.77603 6.34868C3.59881 6.36476 3.44603 6.37211 3.31367 6.37211C2.74238 6.37211 2.55086 6.23735 2.40839 6.09476C2.2136 5.9 2.07936 5.47074 2.34611 5.20387C2.43629 5.11446 2.55306 5.05675 2.67886 5.03943C2.69618 4.91363 2.75388 4.79686 2.84328 4.70667C2.97394 4.57601 3.15828 4.52878 3.36233 4.57358C3.5016 4.60406 3.63007 4.67155 3.73419 4.76893C3.90968 4.9443 4.07377 5.19432 3.98829 6.13645Z"
          fill="black"/>
    <path d="M7.76996 2.46094L7.96877 2.80884L8.16758 2.46094L7.96877 2.11304L7.76996 2.46094Z" fill="black"/>
    <path d="M8.36824 9.8342C8.28187 9.70683 8.22143 9.5637 8.19037 9.41297C8.15932 9.26224 8.15826 9.10687 8.18725 8.95573C8.21623 8.8046 8.27471 8.66065 8.35933 8.53211C8.44395 8.40357 8.55306 8.29295 8.68043 8.20658C8.93766 8.03215 9.25366 7.96704 9.55889 8.02559C9.86413 8.08413 10.1336 8.26154 10.308 8.51877L11.6042 10.3125H11.9531V0.9375H6.79688V10.3125H8.69142L8.36824 9.8342ZM9.375 3.75C9.41358 3.75 9.45157 3.75953 9.48558 3.77773C9.5196 3.79593 9.5486 3.82225 9.57 3.85436L10.5075 5.26061C10.5332 5.29911 10.5469 5.34435 10.5469 5.39062C10.5469 5.4369 10.5332 5.48214 10.5075 5.52064L9.57 6.92689C9.5486 6.95899 9.5196 6.98531 9.48558 7.00352C9.45157 7.02172 9.41358 7.03124 9.375 7.03124C9.33642 7.03124 9.29843 7.02172 9.26442 7.00352C9.2304 6.98531 9.2014 6.95899 9.18 6.92689L8.2425 5.52064C8.21683 5.48214 8.20313 5.4369 8.20313 5.39062C8.20313 5.34435 8.21683 5.29911 8.2425 5.26061L9.18 3.85436C9.2014 3.82225 9.2304 3.79593 9.26442 3.77773C9.29843 3.75953 9.33642 3.75 9.375 3.75V3.75ZM7.96875 3.51562C7.92743 3.51562 7.88685 3.5047 7.85111 3.48396C7.81537 3.46322 7.78575 3.4334 7.76525 3.39753L7.2965 2.57722C7.27627 2.5418 7.26563 2.50172 7.26563 2.46094C7.26563 2.42015 7.27627 2.38007 7.2965 2.34466L7.76525 1.52435C7.78575 1.48847 7.81537 1.45865 7.85111 1.43791C7.88685 1.41717 7.92743 1.40625 7.96875 1.40625C8.01007 1.40625 8.05065 1.41717 8.08639 1.43791C8.12213 1.45865 8.15175 1.48847 8.17225 1.52435L8.641 2.34466C8.66123 2.38007 8.67188 2.42015 8.67188 2.46094C8.67188 2.50172 8.66123 2.5418 8.641 2.57722L8.17225 3.39753C8.15175 3.4334 8.12213 3.46322 8.08639 3.48396C8.05065 3.5047 8.01007 3.51562 7.96875 3.51562V3.51562Z"
          fill="black"/>
</svg>
